<svg width="800" height="400" viewBox="0 0 800 400" xmlns="http://www.w3.org/2000/svg">
  <!-- Legal Justice and Government Building Illustration -->
  <defs>
    <pattern id="grain" patternUnits="userSpaceOnUse" width="4" height="4">
      <rect width="4" height="4" fill="#f5f5f5"/>
      <circle cx="2" cy="2" r="0.5" fill="#e0e0e0" opacity="0.3"/>
    </pattern>
  </defs>
  
  <!-- Background -->
  <rect width="800" height="400" fill="#f8f9fa"/>
  <rect width="800" height="400" fill="url(#grain)"/>
  
  <!-- City silhouettes in background -->
  <rect x="50" y="200" width="30" height="120" fill="#6b7280" opacity="0.3"/>
  <rect x="90" y="180" width="25" height="140" fill="#6b7280" opacity="0.3"/>
  <rect x="125" y="190" width="35" height="130" fill="#6b7280" opacity="0.3"/>
  <rect x="170" y="170" width="20" height="150" fill="#6b7280" opacity="0.3"/>
  
  <!-- Sun -->
  <circle cx="100" cy="80" r="25" fill="#f59e0b"/>
  
  <!-- Gavel -->
  <rect x="650" y="60" width="8" height="60" fill="#1e3a8a" transform="rotate(15 654 90)"/>
  <rect x="620" y="50" width="40" height="8" fill="#1e3a8a" transform="rotate(15 640 54)"/>
  
  <!-- Legal Document -->
  <rect x="150" y="80" width="200" height="280" fill="#f3f4f6" stroke="#1e3a8a" stroke-width="2"/>
  
  <!-- Scales of Justice on document -->
  <g transform="translate(250, 120)">
    <line x1="-20" y1="0" x2="20" y2="0" stroke="#1e3a8a" stroke-width="3"/>
    <circle cx="-15" cy="0" r="8" fill="#1e3a8a"/>
    <circle cx="15" cy="0" r="8" fill="#1e3a8a"/>
    <line x1="0" y1="0" x2="0" y2="30" stroke="#1e3a8a" stroke-width="3"/>
  </g>
  
  <!-- Text lines on document -->
  <line x1="170" y1="180" x2="330" y2="180" stroke="#1e3a8a" stroke-width="1"/>
  <line x1="170" y1="200" x2="330" y2="200" stroke="#1e3a8a" stroke-width="1"/>
  <line x1="170" y1="220" x2="330" y2="220" stroke="#1e3a8a" stroke-width="1"/>
  <line x1="170" y1="240" x2="330" y2="240" stroke="#1e3a8a" stroke-width="1"/>
  
  <!-- Government Building -->
  <rect x="400" y="200" width="200" height="120" fill="#1e3a8a"/>
  <rect x="420" y="180" width="160" height="40" fill="#f3f4f6"/>
  
  <!-- Columns -->
  <rect x="430" y="160" width="12" height="60" fill="#f3f4f6"/>
  <rect x="450" y="160" width="12" height="60" fill="#f3f4f6"/>
  <rect x="470" y="160" width="12" height="60" fill="#f3f4f6"/>
  <rect x="490" y="160" width="12" height="60" fill="#f3f4f6"/>
  <rect x="510" y="160" width="12" height="60" fill="#f3f4f6"/>
  <rect x="530" y="160" width="12" height="60" fill="#f3f4f6"/>
  
  <!-- Dome -->
  <ellipse cx="500" cy="140" rx="80" ry="40" fill="#f3f4f6"/>
  <line x1="500" y1="100" x2="500" y2="80" stroke="#1e3a8a" stroke-width="3"/>
  <rect x="495" y="75" width="10" height="10" fill="#1e3a8a"/>
  
  <!-- Tree -->
  <ellipse cx="120" cy="320" rx="30" ry="25" fill="#1e3a8a"/>
  <rect x="115" y="340" width="10" height="40" fill="#1e3a8a"/>
</svg>
