<svg width="600" height="400" viewBox="0 0 600 400" xmlns="http://www.w3.org/2000/svg">
  <!-- Professional Legal Team with Scales of Justice -->
  <defs>
    <pattern id="grain" patternUnits="userSpaceOnUse" width="4" height="4">
      <rect width="4" height="4" fill="#f5f5f5"/>
      <circle cx="2" cy="2" r="0.5" fill="#e0e0e0" opacity="0.3"/>
    </pattern>
  </defs>
  
  <!-- Background -->
  <rect width="600" height="400" fill="#ffffff"/>
  <rect width="600" height="400" fill="url(#grain)"/>
  
  <!-- Window -->
  <rect x="50" y="50" width="100" height="200" fill="#e5e7eb" stroke="#1e3a8a" stroke-width="2"/>
  <line x1="100" y1="50" x2="100" y2="250" stroke="#1e3a8a" stroke-width="1"/>
  <line x1="50" y1="150" x2="150" y2="150" stroke="#1e3a8a" stroke-width="1"/>
  
  <!-- Desk -->
  <rect x="0" y="280" width="600" height="120" fill="#8b4513"/>
  
  <!-- Scales of Justice -->
  <g transform="translate(300, 320)">
    <line x1="-30" y1="0" x2="30" y2="0" stroke="#d97706" stroke-width="4"/>
    <circle cx="-20" cy="0" r="12" fill="#d97706"/>
    <circle cx="20" cy="0" r="12" fill="#d97706"/>
    <line x1="0" y1="0" x2="0" y2="40" stroke="#d97706" stroke-width="4"/>
    <rect x="-5" y="35" width="10" height="15" fill="#d97706"/>
  </g>
  
  <!-- Law Book -->
  <rect x="400" y="300" width="80" height="100" fill="#f3f4f6" stroke="#1e3a8a" stroke-width="2"/>
  <line x1="420" y1="320" x2="460" y2="320" stroke="#1e3a8a" stroke-width="1"/>
  <line x1="420" y1="340" x2="460" y2="340" stroke="#1e3a8a" stroke-width="1"/>
  <line x1="420" y1="360" x2="460" y2="360" stroke="#1e3a8a" stroke-width="1"/>
  
  <!-- Legal Team (5 people) -->
  
  <!-- Person 1 (Far Left) -->
  <circle cx="200" cy="200" r="25" fill="#fbbf24"/>
  <rect x="185" y="225" width="30" height="60" fill="#1e3a8a"/>
  <rect x="190" y="240" width="20" height="30" fill="#3b82f6"/>
  
  <!-- Person 2 (Front Left) -->
  <circle cx="250" cy="220" r="25" fill="#fbbf24"/>
  <rect x="235" y="245" width="30" height="60" fill="#1e3a8a"/>
  <rect x="240" y="260" width="20" height="30" fill="#3b82f6"/>
  
  <!-- Person 3 (Center Back) -->
  <circle cx="300" cy="180" r="25" fill="#fbbf24"/>
  <rect x="285" y="205" width="30" height="60" fill="#1e3a8a"/>
  <rect x="290" y="220" width="20" height="30" fill="#ffffff"/>
  
  <!-- Person 4 (Front Right) -->
  <circle cx="350" cy="220" r="25" fill="#fbbf24"/>
  <rect x="335" y="245" width="30" height="60" fill="#1e3a8a"/>
  <rect x="340" y="260" width="20" height="30" fill="#ffffff"/>
  
  <!-- Person 5 (Far Right) -->
  <circle cx="400" cy="200" r="25" fill="#fbbf24"/>
  <rect x="385" y="225" width="30" height="60" fill="#1e3a8a"/>
  <rect x="390" y="240" width="20" height="30" fill="#ffffff"/>
  
  <!-- Professional expressions -->
  <circle cx="195" cy="195" r="2" fill="#1e3a8a"/>
  <circle cx="205" cy="195" r="2" fill="#1e3a8a"/>
  <path d="M 195 205 Q 200 210 205 205" stroke="#1e3a8a" stroke-width="1" fill="none"/>
  
  <circle cx="245" cy="215" r="2" fill="#1e3a8a"/>
  <circle cx="255" cy="215" r="2" fill="#1e3a8a"/>
  <path d="M 245 225 Q 250 230 255 225" stroke="#1e3a8a" stroke-width="1" fill="none"/>
  
  <circle cx="295" cy="175" r="2" fill="#1e3a8a"/>
  <circle cx="305" cy="175" r="2" fill="#1e3a8a"/>
  <path d="M 295 185 Q 300 190 305 185" stroke="#1e3a8a" stroke-width="1" fill="none"/>
  
  <circle cx="345" cy="215" r="2" fill="#1e3a8a"/>
  <circle cx="355" cy="215" r="2" fill="#1e3a8a"/>
  <path d="M 345 225 Q 350 230 355 225" stroke="#1e3a8a" stroke-width="1" fill="none"/>
  
  <circle cx="395" cy="195" r="2" fill="#1e3a8a"/>
  <circle cx="405" cy="195" r="2" fill="#1e3a8a"/>
  <path d="M 395 205 Q 400 210 405 205" stroke="#1e3a8a" stroke-width="1" fill="none"/>
</svg>
